<svg data-v-423bf9ae="" xmlns="http://www.w3.org/2000/svg" viewBox="0 0 342 90" class="iconLeft"><!----><!----><!----><g data-v-423bf9ae="" id="3c274b2b-3e5e-41a6-82c3-4b5368ea5631" fill="#361A02" transform="matrix(4.535147222295708,0,0,4.535147222295708,109.18367001324312,2.3015872785689524)"><path d="M7.43 3.78L4.16 9.42L4.16 13.02L3.46 13.02L3.46 9.42L0.18 3.78L1.01 3.78L3.81 8.69L6.61 3.78L7.43 3.78ZM10.79 5.88L10.79 5.88Q12.35 5.88 13.24 6.85L13.24 6.85L13.24 6.85Q14.13 7.83 14.13 9.52L14.13 9.52L14.13 9.52Q14.13 11.21 13.24 12.19L13.24 12.19L13.24 12.19Q12.35 13.16 10.79 13.16L10.79 13.16L10.79 13.16Q9.24 13.16 8.35 12.19L8.35 12.19L8.35 12.19Q7.46 11.21 7.46 9.52L7.46 9.52L7.46 9.52Q7.46 7.83 8.35 6.85L8.35 6.85L8.35 6.85Q9.24 5.88 10.79 5.88L10.79 5.88ZM10.79 6.48L10.79 6.48Q9.56 6.48 8.86 7.29L8.86 7.29L8.86 7.29Q8.16 8.11 8.16 9.52L8.16 9.52L8.16 9.52Q8.16 10.93 8.86 11.75L8.86 11.75L8.86 11.75Q9.56 12.56 10.79 12.56L10.79 12.56L10.79 12.56Q12.03 12.56 12.73 11.75L12.73 11.75L12.73 11.75Q13.43 10.93 13.43 9.52L13.43 9.52L13.43 9.52Q13.43 8.11 12.73 7.29L12.73 7.29L12.73 7.29Q12.03 6.48 10.79 6.48L10.79 6.48ZM21.28 6.02L21.98 6.02L21.98 13.02L21.35 13.02L21.32 11.63L21.32 11.63Q20.97 12.38 20.27 12.77L20.27 12.77L20.27 12.77Q19.57 13.16 18.62 13.16L18.62 13.16L18.62 13.16Q17.47 13.16 16.79 12.52L16.79 12.52L16.79 12.52Q16.10 11.89 16.10 10.64L16.10 10.64L16.10 6.02L16.80 6.02L16.80 10.47L16.80 10.47Q16.80 12.54 18.73 12.54L18.73 12.54L18.73 12.54Q19.50 12.54 20.08 12.21L20.08 12.21L20.08 12.21Q20.66 11.87 20.97 11.30L20.97 11.30L20.97 11.30Q21.28 10.72 21.28 10.04L21.28 10.04L21.28 6.02ZM24.64 13.02L24.64 3.78L27.90 3.78L27.90 3.78Q29.41 3.78 30.16 4.41L30.16 4.41L30.16 4.41Q30.91 5.04 30.91 6.23L30.91 6.23L30.91 6.23Q30.91 7.04 30.47 7.60L30.47 7.60L30.47 7.60Q30.03 8.16 29.22 8.33L29.22 8.33L29.22 8.34L29.22 8.34Q30.11 8.48 30.64 9.07L30.64 9.07L30.64 9.07Q31.16 9.66 31.16 10.53L31.16 10.53L31.16 10.53Q31.16 11.72 30.32 12.37L30.32 12.37L30.32 12.37Q29.47 13.02 27.90 13.02L27.90 13.02L24.64 13.02ZM25.34 8.04L27.92 8.04L27.92 8.04Q30.17 8.04 30.17 6.23L30.17 6.23L30.17 6.23Q30.17 4.42 27.92 4.42L27.92 4.42L25.34 4.42L25.34 8.04ZM25.34 12.38L28.04 12.38L28.04 12.38Q29.22 12.38 29.82 11.90L29.82 11.90L29.82 11.90Q30.42 11.42 30.42 10.53L30.42 10.53L30.42 10.53Q30.42 9.62 29.82 9.15L29.82 9.15L29.82 9.15Q29.22 8.68 28.04 8.68L28.04 8.68L25.34 8.68L25.34 12.38ZM33.92 2.80L33.92 11.33L33.92 11.33Q33.92 11.97 34.13 12.24L34.13 12.24L34.13 12.24Q34.33 12.50 34.80 12.50L34.80 12.50L34.80 12.50Q35.08 12.50 35.28 12.46L35.28 12.46L35.28 12.46Q35.48 12.42 35.73 12.31L35.73 12.31L35.63 12.98L35.63 12.98Q35.24 13.16 34.71 13.16L34.71 13.16L34.71 13.16Q33.95 13.16 33.59 12.73L33.59 12.73L33.59 12.73Q33.22 12.31 33.22 11.40L33.22 11.40L33.22 2.80L33.92 2.80ZM39.94 5.88L39.94 5.88Q41.50 5.88 42.38 6.85L42.38 6.85L42.38 6.85Q43.27 7.83 43.27 9.52L43.27 9.52L43.27 9.52Q43.27 11.21 42.38 12.19L42.38 12.19L42.38 12.19Q41.50 13.16 39.94 13.16L39.94 13.16L39.94 13.16Q38.39 13.16 37.50 12.19L37.50 12.19L37.50 12.19Q36.61 11.21 36.61 9.52L36.61 9.52L36.61 9.52Q36.61 7.83 37.50 6.85L37.50 6.85L37.50 6.85Q38.39 5.88 39.94 5.88L39.94 5.88ZM39.94 6.48L39.94 6.48Q38.71 6.48 38.01 7.29L38.01 7.29L38.01 7.29Q37.31 8.11 37.31 9.52L37.31 9.52L37.31 9.52Q37.31 10.93 38.01 11.75L38.01 11.75L38.01 11.75Q38.71 12.56 39.94 12.56L39.94 12.56L39.94 12.56Q41.17 12.56 41.87 11.75L41.87 11.75L41.87 11.75Q42.57 10.93 42.57 9.52L42.57 9.52L42.57 9.52Q42.57 8.11 41.87 7.29L41.87 7.29L41.87 7.29Q41.17 6.48 39.94 6.48L39.94 6.48ZM48.90 12.31L48.90 12.31Q49.95 12.31 50.55 12.74L50.55 12.74L50.55 12.74Q51.16 13.17 51.16 13.90L51.16 13.90L51.16 13.90Q51.16 14.53 50.73 15.02L50.73 15.02L50.73 15.02Q50.30 15.50 49.55 15.76L49.55 15.76L49.55 15.76Q48.79 16.03 47.82 16.03L47.82 16.03L47.82 16.03Q46.24 16.03 45.40 15.52L45.40 15.52L45.40 15.52Q44.56 15.01 44.56 14.17L44.56 14.17L44.56 14.17Q44.56 13.62 44.90 13.23L44.90 13.23L44.90 13.23Q45.23 12.84 45.82 12.67L45.82 12.67L45.82 12.67Q45.40 12.49 45.16 12.17L45.16 12.17L45.16 12.17Q44.91 11.84 44.91 11.45L44.91 11.45L44.91 11.45Q44.91 10.95 45.24 10.60L45.24 10.60L45.24 10.60Q45.57 10.25 46.13 10.09L46.13 10.09L46.13 10.09Q45.56 9.80 45.25 9.30L45.25 9.30L45.25 9.30Q44.94 8.81 44.94 8.16L44.94 8.16L44.94 8.16Q44.94 7.13 45.72 6.50L45.72 6.50L45.72 6.50Q46.49 5.88 47.78 5.88L47.78 5.88L47.78 5.88Q48.68 5.88 49.36 6.20L49.36 6.20L49.36 6.20Q49.45 5.53 49.92 5.13L49.92 5.13L49.92 5.13Q50.40 4.73 51.11 4.73L51.11 4.73L51.28 5.35L51.28 5.35Q50.62 5.35 50.25 5.64L50.25 5.64L50.25 5.64Q49.87 5.94 49.81 6.48L49.81 6.48L49.81 6.48Q50.61 7.13 50.61 8.16L50.61 8.16L50.61 8.16Q50.61 9.20 49.83 9.83L49.83 9.83L49.83 9.83Q49.06 10.46 47.78 10.46L47.78 10.46L47.78 10.46Q47.35 10.46 46.83 10.36L46.83 10.36L46.83 10.36Q46.24 10.43 45.91 10.70L45.91 10.70L45.91 10.70Q45.58 10.98 45.58 11.35L45.58 11.35L45.58 11.35Q45.58 11.80 45.96 12.05L45.96 12.05L45.96 12.05Q46.34 12.31 47.10 12.31L47.10 12.31L48.90 12.31ZM45.64 8.16L45.64 8.16Q45.64 8.95 46.21 9.41L46.21 9.41L46.21 9.41Q46.79 9.87 47.78 9.87L47.78 9.87L47.78 9.87Q48.76 9.87 49.34 9.41L49.34 9.41L49.34 9.41Q49.91 8.95 49.91 8.16L49.91 8.16L49.91 8.16Q49.91 7.38 49.34 6.92L49.34 6.92L49.34 6.92Q48.76 6.47 47.78 6.47L47.78 6.47L47.78 6.47Q46.80 6.47 46.22 6.92L46.22 6.92L46.22 6.92Q45.64 7.38 45.64 8.16L45.64 8.16ZM47.89 15.44L47.89 15.44Q49.08 15.44 49.80 15.03L49.80 15.03L49.80 15.03Q50.53 14.62 50.53 13.99L50.53 13.99L50.53 13.99Q50.53 13.48 50.07 13.20L50.07 13.20L50.07 13.20Q49.62 12.91 48.75 12.91L48.75 12.91L46.94 12.91L46.94 12.91Q46.14 12.91 45.67 13.22L45.67 13.22L45.67 13.22Q45.21 13.54 45.21 14.06L45.21 14.06L45.21 14.06Q45.21 14.70 45.91 15.07L45.91 15.07L45.91 15.07Q46.61 15.44 47.89 15.44L47.89 15.44Z"></path></g><defs data-v-423bf9ae=""><linearGradient data-v-423bf9ae="" gradientTransform="rotate(25)" id="74452b8d-5d34-40fc-8311-58d32004cb87" x1="0%" y1="0%" x2="100%" y2="0%"><stop data-v-423bf9ae="" offset="0%" style="stop-color: rgb(230, 53, 0); stop-opacity: 1;"></stop><stop data-v-423bf9ae="" offset="100%" style="stop-color: rgb(255, 195, 22); stop-opacity: 1;"></stop></linearGradient></defs><g data-v-423bf9ae="" id="6e8570f2-b337-41ed-bbc0-096ba2765d9e" transform="matrix(2.8125,0,0,2.8125,0,0)" stroke="none" fill="url(#74452b8d-5d34-40fc-8311-58d32004cb87)"><path d="M16 32c8.837 0 16-7.163 16-16S24.837 0 16 0 0 7.163 0 16s7.163 16 16 16zM14.817 6.421h2v8.886h8.887v2H14.817V6.421zm-5.959.437h2v14.283h14.283v2H8.858V6.858z"></path></g><!----></svg>